<?xml version="1.0" standalone="no"?>
<!DOCTYPE svg PUBLIC "-//W3C//DTD SVG 20010904//EN"
 "http://www.w3.org/TR/2001/REC-SVG-20010904/DTD/svg10.dtd">
<svg version="1.0" xmlns="http://www.w3.org/2000/svg"
 width="300.000000pt" height="300.000000pt" viewBox="0 0 300.000000 300.000000"
 preserveAspectRatio="xMidYMid meet">
<metadata>
Created by potrace 1.10, written by Peter Selinger 2001-2011
</metadata>
<g transform="translate(0.000000,300.000000) scale(0.100000,-0.100000)"
fill="#000000" stroke="none">
<path d="M1109 2371 c-46 -44 -69 -83 -69 -116 0 -13 -10 -29 -23 -38 -28 -18
-67 -118 -67 -169 0 -20 7 -53 16 -74 9 -21 20 -63 24 -94 9 -63 11 -68 88
-216 42 -81 63 -110 75 -108 20 3 21 -3 3 -36 -21 -37 10 -92 64 -114 53 -21
162 -21 226 1 53 17 130 67 138 89 7 18 56 18 56 1 0 -7 14 -26 30 -42 28 -27
30 -33 25 -79 -4 -36 -3 -45 4 -31 5 11 10 30 10 43 1 28 17 28 32 1 9 -17 8
-23 -2 -30 -11 -7 -11 -9 1 -9 10 0 11 -3 4 -8 -6 -4 -15 -23 -19 -42 -4 -19
-14 -44 -21 -55 -8 -11 -14 -28 -14 -38 0 -13 -5 -17 -15 -13 -15 5 -22 -19
-7 -28 27 -16 92 107 98 185 4 59 -17 102 -44 92 -14 -5 -15 -3 -5 7 10 11 16
10 32 -4 19 -17 20 -17 24 6 2 13 5 -15 6 -61 1 -100 9 -102 16 -5 7 83 -3
105 -65 149 -43 30 -46 31 -58 13 -12 -16 -15 -16 -28 -3 -10 9 -22 12 -37 6
-38 -13 -86 -4 -122 23 -19 15 -40 24 -46 21 -15 -10 60 -77 80 -71 9 3 23 1
31 -4 19 -12 1 -26 -86 -70 -51 -25 -74 -30 -130 -30 -46 0 -81 6 -104 18 -32
16 -35 21 -48 95 -8 42 -18 77 -22 77 -8 0 -50 62 -50 74 0 4 9 2 20 -4 32
-17 13 20 -30 57 -26 22 -42 49 -54 87 -16 50 -16 58 -3 86 9 16 11 30 6 30
-5 0 -9 -5 -9 -11 0 -6 -5 -9 -12 -7 -20 7 -35 70 -33 141 1 57 5 71 27 95 32
34 51 70 43 82 -3 6 -1 10 4 10 6 0 11 12 11 28 0 47 24 63 96 67 22 2 50 7
61 13 12 7 32 8 49 4 32 -9 134 5 134 18 0 10 -51 20 -101 20 -33 0 -76 -9
-168 -36 -23 -7 -23 -7 -6 20 25 37 11 32 -36 -13z m-138 -358 c-10 -17 -10
-17 -11 2 0 11 4 31 8 45 l7 25 3 -27 c2 -15 -1 -35 -7 -45z m760 -504 c32
-22 38 -39 14 -39 -8 0 -15 5 -15 11 0 6 -8 8 -19 4 -22 -7 -36 9 -27 30 7 20
12 19 47 -6z"/>
<path d="M1455 2370 c27 -7 26 -8 -15 -9 -45 -1 -45 -1 -18 -15 14 -8 45 -17
68 -21 22 -4 53 -18 68 -31 49 -43 53 -46 59 -41 3 3 -7 18 -21 32 -14 14 -26
28 -26 30 0 7 64 -15 74 -26 8 -9 6 -10 -9 -5 -16 5 -15 3 5 -13 13 -11 29
-17 35 -14 5 4 7 3 3 -2 -4 -4 -2 -15 5 -23 8 -10 2 -9 -18 4 l-30 19 23 -32
c13 -18 25 -41 27 -50 2 -10 6 -31 9 -48 l6 -30 -14 30 c-8 17 -18 30 -23 30
-4 0 -7 6 -6 14 2 20 -16 65 -24 57 -3 -3 -12 -1 -20 5 -7 6 -13 8 -13 4 0 -5
-9 0 -20 10 -11 10 -37 19 -58 21 -20 1 -48 5 -62 10 -23 7 -24 6 -10 -11 14
-17 73 -48 95 -49 6 -1 10 -5 10 -11 0 -5 15 -24 32 -41 31 -30 32 -30 42 -10
10 21 10 21 10 -1 1 -13 5 -23 10 -23 12 0 43 -79 35 -91 -3 -6 -13 -8 -21 -5
-9 4 -17 -1 -20 -14 -7 -26 -14 -25 -71 5 -34 18 -62 25 -104 25 -31 0 -59 -4
-63 -9 -3 -6 -26 -13 -50 -17 -46 -6 -71 -23 -38 -25 14 0 12 -3 -6 -10 -35
-14 -21 -19 24 -9 68 16 78 14 70 -17 -5 -21 -4 -24 7 -16 18 15 62 8 108 -16
28 -14 41 -16 49 -8 8 8 11 8 11 0 0 -6 -7 -16 -15 -23 -9 -7 -14 -19 -11 -27
4 -10 -6 -13 -39 -13 -50 0 -85 25 -85 61 0 11 -4 18 -9 15 -19 -12 5 -61 37
-77 l32 -16 -46 -6 c-26 -3 -53 -13 -63 -23 -15 -17 -15 -17 0 -6 9 7 41 15
70 19 30 3 62 10 72 15 13 7 17 4 17 -13 0 -13 8 -23 20 -26 16 -4 18 -8 9
-19 -9 -11 -7 -14 10 -14 12 0 20 4 17 9 -4 5 2 7 11 5 27 -6 53 19 46 44 -4
15 -9 19 -17 13 -6 -5 -25 -11 -41 -13 -24 -2 -30 1 -30 17 0 14 9 22 30 26
24 5 27 7 13 13 -13 6 -15 12 -8 26 5 9 8 32 6 51 -2 19 -1 26 1 17 2 -10 8
-18 13 -18 17 0 79 -102 75 -122 -4 -18 0 -20 27 -14 46 9 66 32 75 85 14 82
12 85 -34 95 l-43 10 3 84 c3 67 0 92 -15 120 -10 20 -18 41 -18 47 0 6 -13
24 -29 39 -22 21 -40 28 -82 31 -39 3 -59 10 -71 25 -11 13 -27 20 -50 19
l-33 -1 30 -8z m140 -170 c-3 -5 0 -12 6 -16 8 -4 9 -3 5 4 -4 7 -2 12 5 12 8
0 7 5 -2 17 -13 15 -12 15 8 2 13 -7 25 -20 28 -28 5 -12 3 -12 -11 0 -13 11
-15 11 -14 -2 5 -33 -1 -37 -23 -16 -13 12 -22 24 -20 26 2 2 -3 11 -10 19
-10 13 -9 14 11 3 12 -7 20 -16 17 -21z m-152 -178 c-12 -13 -22 -16 -30 -9
-18 13 -6 27 23 27 23 0 23 -1 7 -18z m122 -18 c15 -9 25 -26 25 -39 l0 -23
-61 19 c-33 10 -70 19 -80 19 -17 0 -18 3 -9 20 14 25 89 28 125 4z m120 6
c-4 -6 8 -10 27 -10 57 0 72 -21 69 -91 -1 -35 -32 -72 -52 -64 -16 6 -24 75
-8 75 5 0 9 4 9 8 0 10 -61 33 -71 26 -5 -3 -9 6 -9 20 0 14 8 30 18 35 22 13
25 13 17 1z"/>
<path d="M1403 2234 c-8 -4 -1 -21 20 -52 56 -79 56 -75 -4 -68 l-54 6 39 -14
c22 -8 44 -12 49 -9 5 3 13 -1 18 -8 16 -27 20 0 4 32 -15 29 -15 31 -1 26 23
-9 20 4 -10 38 -25 29 -26 29 -10 3 9 -16 12 -28 7 -28 -15 0 -53 58 -46 70 7
11 6 11 -12 4z"/>
<path d="M1480 2214 c0 -5 14 -25 31 -44 l31 -35 -19 33 c-19 35 -43 61 -43
46z"/>
<path d="M1486 1769 c-24 -19 -39 -58 -17 -44 5 3 12 1 16 -5 4 -6 32 -8 72
-5 40 4 78 1 99 -7 47 -17 60 -2 40 46 -8 20 -20 36 -25 36 -16 0 -13 -19 4
-37 20 -19 9 -36 -18 -27 -28 9 -51 12 -112 14 l-50 1 28 15 c15 8 27 19 27
24 0 17 -36 11 -64 -11z"/>
<path d="M1534 1681 c3 -5 21 -16 41 -25 19 -10 35 -24 35 -34 1 -16 2 -16 14
1 7 9 19 17 25 17 7 0 9 5 6 10 -3 6 -18 10 -33 10 -15 1 -38 7 -52 15 -29 16
-44 19 -36 6z"/>
<path d="M1573 1426 c-9 -15 -54 -41 -65 -38 -5 1 -8 -5 -8 -13 0 -24 16 -18
62 25 24 22 38 40 31 40 -7 0 -16 -6 -20 -14z"/>
<path d="M1102 1395 c-12 -15 -27 -44 -32 -64 -10 -36 -77 -91 -317 -262 -34
-24 -65 -51 -69 -59 -14 -33 -57 -466 -49 -504 3 -16 0 -111 -6 -210 -8 -126
-8 -199 -1 -241 l11 -60 -2 80 c0 44 3 154 7 245 4 91 9 199 11 240 1 41 5
100 9 130 3 30 9 76 12 103 9 87 21 97 48 41 9 -20 20 -34 23 -31 3 4 -9 36
-26 73 -50 105 -30 99 28 -9 29 -53 55 -97 57 -97 3 0 2 5 -1 10 -3 6 -2 10 3
10 6 0 13 -7 16 -16 4 -9 9 -14 13 -10 3 3 -1 14 -9 23 -9 10 -19 29 -23 43
-4 14 -15 30 -24 36 -10 8 -14 24 -13 49 2 25 -1 34 -8 30 -6 -4 -9 -13 -6
-21 8 -22 -3 -17 -29 14 -29 32 -31 57 -7 76 69 57 116 86 137 86 15 0 25 6
25 14 0 7 17 26 38 41 103 77 172 139 172 154 0 10 7 26 15 37 14 18 15 18 44
-14 17 -19 33 -43 37 -55 7 -23 28 -47 40 -47 5 0 3 5 -4 12 -7 7 -12 21 -12
32 0 10 -17 42 -39 70 -21 28 -40 57 -43 65 -3 10 -10 6 -26 -14z"/>
<path d="M1859 1374 c-6 -74 5 -293 17 -327 l14 -42 -6 45 c-3 25 -7 107 -9
183 -1 76 -5 141 -9 144 -3 4 -6 2 -7 -3z"/>
<path d="M1371 1352 c-2 -23 -38 -64 -44 -50 -3 8 -6 6 -6 -4 -1 -21 8 -22 46
-6 15 6 33 12 38 12 6 1 11 15 12 31 2 25 1 27 -7 10 -6 -14 -9 -15 -9 -5 -1
9 -9 3 -21 -15 -11 -16 -20 -25 -20 -19 0 5 5 15 11 21 6 6 9 17 6 25 -5 11
-6 11 -6 0z"/>
<path d="M1430 1343 c0 -12 -3 -30 -6 -40 -3 -10 2 -7 10 7 14 23 15 23 16 5
1 -18 2 -17 11 4 6 16 6 28 -1 35 -7 7 -10 5 -10 -4 0 -13 -2 -13 -10 0 -8 12
-10 11 -10 -7z"/>
<path d="M1683 1298 c-36 -46 -102 -148 -96 -148 15 0 123 137 123 155 0 10
-18 5 -27 -7z"/>
<path d="M1245 1190 c16 -16 37 -30 46 -30 10 0 21 -4 24 -10 3 -5 22 -8 43
-6 49 5 164 35 179 48 7 5 18 6 25 2 7 -4 5 1 -4 11 -12 13 -21 15 -30 8 -25
-20 -143 -53 -180 -50 -32 2 -37 5 -32 21 4 11 2 16 -4 12 -5 -3 -29 1 -53 9
l-43 16 29 -31z"/>
<path d="M1180 1183 c0 -17 17 -30 44 -35 l28 -6 -28 24 c-30 24 -44 29 -44
17z"/>
<path d="M1052 1077 c0 -60 -4 -112 -8 -117 -17 -15 -108 -59 -113 -54 -3 2
-6 33 -7 67 -1 58 -19 126 -29 115 -3 -3 0 -19 6 -37 10 -28 9 -66 -3 -146 -6
-37 41 -30 112 16 l65 43 -3 75 c-7 133 -21 160 -20 38z"/>
<path d="M1090 1162 c0 -12 9 -28 21 -36 12 -8 18 -19 15 -24 -3 -6 1 -12 9
-16 24 -9 17 18 -15 59 -25 31 -30 34 -30 17z"/>
<path d="M1626 1132 c-34 -14 -43 -25 -82 -110 -32 -70 -43 -103 -39 -126 2
-17 7 -58 10 -91 12 -139 17 -186 36 -300 11 -66 25 -149 31 -185 5 -36 12
-67 15 -70 7 -7 -6 135 -18 187 -20 92 -40 253 -45 362 -5 115 -4 117 29 196
37 86 54 103 54 55 0 -49 21 -62 104 -64 41 -1 84 -8 96 -14 23 -13 66 -16 76
-6 14 14 -187 134 -225 134 -25 0 -23 16 4 34 29 20 6 19 -46 -2z m54 -51 c0
-4 15 -15 33 -26 59 -34 62 -55 7 -55 -53 0 -90 24 -90 59 0 21 5 26 25 27 14
1 25 -1 25 -5z"/>
<path d="M1314 1097 c-28 -12 -62 -31 -75 -42 -13 -11 -22 -19 -20 -17 2 1 16
-5 29 -14 24 -16 25 -16 18 9 -5 20 -1 29 14 37 16 9 22 6 35 -17 l15 -28 -5
30 -5 30 11 -30 c6 -16 24 -43 39 -60 15 -16 33 -39 39 -50 11 -18 12 -17 6
10 -8 39 -39 91 -53 88 -5 -1 -13 4 -16 12 -3 10 1 15 12 15 25 0 89 -134 97
-202 16 -132 77 -581 91 -658 8 -47 15 -97 14 -112 0 -16 4 -28 10 -28 7 0 8
-13 4 -35 -4 -23 -2 -35 5 -35 16 0 14 30 -9 155 -19 107 -28 178 -34 260 -1
22 -6 63 -10 90 -3 28 -9 70 -11 95 -2 25 -7 65 -10 90 -3 25 -7 54 -8 65 -1
11 -6 23 -10 26 -5 4 -10 29 -11 57 -1 43 1 49 13 39 8 -7 13 -7 10 -2 -21 44
-34 71 -68 150 -21 50 -45 91 -52 92 -8 1 -37 -8 -65 -20z"/>
<path d="M1980 1112 c0 -12 71 -134 75 -130 7 7 -8 57 -15 53 -5 -3 -13 10
-20 29 -11 34 -40 69 -40 48z"/>
<path d="M2184 1057 c1 -35 7 -62 13 -64 9 -3 11 13 7 57 -3 48 -1 60 8 54 7
-4 9 -3 5 1 -4 5 -14 10 -22 11 -10 2 -13 -12 -11 -59z"/>
<path d="M2233 1035 c-7 -27 -10 -51 -8 -53 6 -7 26 68 23 85 -3 10 -9 -4 -15
-32z"/>
<path d="M1134 987 c-22 -12 -22 -12 -3 -47 20 -37 21 -36 23 22 1 21 1 38 1
38 0 -1 -10 -6 -21 -13z"/>
<path d="M2208 930 c-3 -8 -12 -33 -20 -55 -8 -22 -20 -39 -27 -37 -7 1 -10
-2 -6 -8 4 -6 1 -18 -6 -26 -6 -8 -9 -17 -5 -21 8 -8 8 -7 40 52 l27 50 -4
-36 c-3 -21 1 -43 9 -54 19 -25 18 -41 -1 -25 -13 11 -15 8 -15 -15 0 -23 2
-26 15 -15 19 16 21 14 33 -30 6 -19 11 -28 11 -19 1 9 -8 42 -19 75 -24 72
-25 106 -4 142 13 22 13 23 1 9 -15 -18 -16 -18 -19 5 -3 16 -6 19 -10 8z"/>
<path d="M2115 861 c5 -17 0 -19 -61 -20 -109 -1 -334 -22 -357 -32 -19 -8
-17 -8 8 -4 46 8 273 25 340 25 l60 0 2 -41 c2 -22 7 -48 13 -57 8 -13 10 -3
7 41 -2 31 0 57 4 57 4 0 6 11 5 25 0 14 -7 25 -14 25 -9 0 -11 -7 -7 -19z"/>
<path d="M1625 776 c-5 -19 -3 -39 9 -62 9 -19 16 -41 16 -48 0 -7 10 -13 23
-12 12 1 57 -10 100 -24 l77 -25 1 -70 c1 -84 47 -266 69 -273 9 -2 11 0 4 5
-8 6 -55 296 -54 341 0 6 8 12 17 12 33 0 -3 17 -92 43 -49 15 -100 27 -112
27 -17 0 -24 7 -28 28 -3 15 -10 41 -14 57 l-8 30 -8 -29z"/>
<path d="M1565 721 c0 -29 4 -46 9 -41 12 12 13 82 1 86 -6 3 -10 -17 -10 -45z"/>
<path d="M2151 620 c1 -140 1 -143 13 -89 7 31 23 78 35 103 12 26 19 52 15
58 -10 15 -23 -11 -25 -47 l-1 -30 -8 35 c-5 19 -6 38 -4 42 3 5 0 8 -6 8 -6
0 -9 8 -6 18 3 9 1 24 -4 32 -6 10 -9 -34 -9 -130z"/>
<path d="M1310 694 c0 -33 -5 -51 -17 -60 -17 -13 -17 -14 1 -7 13 4 17 3 12
-5 -4 -7 -3 -12 3 -12 5 0 13 5 16 10 3 6 1 10 -6 10 -10 0 -10 3 -1 12 14 14
16 98 2 98 -5 0 -10 -21 -10 -46z"/>
<path d="M1861 726 c-12 -15 -5 -46 11 -46 6 0 5 6 -2 15 -15 18 -5 35 21 35
28 0 37 -30 14 -46 -10 -8 -14 -14 -8 -14 13 0 43 33 43 47 0 10 -31 23 -56
23 -6 0 -17 -6 -23 -14z"/>
<path d="M2362 730 c3 -8 1 -23 -4 -34 -6 -10 -11 -35 -13 -55 -2 -20 -13 -73
-25 -119 -12 -46 -20 -102 -18 -125 3 -38 5 -33 26 53 13 52 27 104 32 115 6
11 12 40 14 65 2 25 7 53 11 62 4 11 0 24 -11 35 -13 13 -16 14 -12 3z"/>
<path d="M917 682 c-18 -9 -27 -21 -26 -35 l0 -22 9 23 c10 23 30 30 30 10 0
-12 10 -3 10 10 0 4 15 12 33 19 l32 11 -30 -1 c-17 -1 -43 -8 -58 -15z"/>
<path d="M2035 686 c-54 -18 -136 -57 -105 -51 50 11 105 29 118 38 18 14 20
10 31 -73 l9 -75 -1 79 c-1 70 1 80 18 87 36 14 -25 9 -70 -5z"/>
<path d="M1661 599 c-1 -36 30 -204 49 -264 5 -16 11 -52 12 -80 2 -27 9 -59
16 -70 11 -18 12 -16 7 15 -3 19 -7 49 -9 65 -2 17 -11 64 -20 105 -9 41 -25
118 -35 170 -13 63 -19 83 -20 59z"/>
<path d="M2241 584 c1 -27 5 -60 9 -74 5 -15 6 2 3 45 -7 83 -13 99 -12 29z"/>
<path d="M888 607 c-12 -29 -10 -73 3 -60 6 6 9 26 7 44 -2 26 -5 30 -10 16z"/>
<path d="M2441 617 c-1 -4 5 -49 13 -100 8 -50 20 -140 27 -200 10 -84 17
-111 33 -125 19 -16 19 -16 11 3 -15 38 -33 131 -45 235 -10 90 -36 211 -39
187z"/>
<path d="M1355 590 c4 -14 12 -26 16 -28 5 -2 9 -17 9 -33 0 -16 16 -78 35
-138 19 -59 35 -117 35 -127 0 -21 55 -183 66 -193 4 -3 4 5 1 19 -3 14 -18
86 -32 160 -15 74 -32 144 -39 155 -7 11 -16 37 -20 59 -9 47 -35 104 -60 131
-18 20 -18 20 -11 -5z"/>
<path d="M2030 561 c0 -5 9 -19 20 -32 22 -28 28 -6 6 24 -14 18 -26 22 -26 8z"/>
<path d="M1611 539 c-1 -9 13 -73 29 -142 17 -69 30 -136 30 -149 0 -24 50
-162 56 -155 2 2 -5 25 -15 53 -11 27 -23 81 -27 119 -4 39 -9 72 -9 75 -3 12
-16 76 -18 90 -2 8 -7 22 -12 30 -6 8 -15 33 -22 55 -6 22 -11 33 -12 24z"/>
<path d="M970 516 c5 -5 18 -11 27 -12 10 -1 42 -5 71 -9 31 -5 52 -4 52 2 0
5 -36 14 -80 19 -50 6 -76 6 -70 0z"/>
<path d="M1191 470 c-1 -69 36 -270 49 -270 5 0 7 6 5 13 -6 16 -10 43 -25
157 -13 95 -29 151 -29 100z"/>
<path d="M1966 462 c-4 -7 -4 -21 -1 -32 3 -11 7 -33 7 -50 1 -25 5 -30 25
-30 12 0 23 -5 23 -11 0 -5 5 -7 10 -4 6 3 10 -1 10 -9 0 -8 4 -17 10 -21 5
-3 5 7 -2 25 -6 18 -17 34 -24 37 -8 3 -12 9 -9 13 3 5 -1 12 -9 17 -8 4 -18
24 -23 43 -6 22 -12 30 -17 22z"/>
<path d="M2258 459 c-3 -31 -4 -34 -11 -46 -5 -7 -4 -13 1 -13 5 0 14 -10 20
-22 9 -19 10 -13 5 32 -6 56 -12 75 -15 49z"/>
<path d="M2411 420 c0 -14 6 -45 13 -70 19 -58 20 -20 2 45 -9 32 -14 41 -15
25z"/>
<path d="M2164 333 c4 -27 10 -68 15 -93 l8 -45 2 40 c1 62 -11 145 -22 145
-6 0 -7 -18 -3 -47z"/>
<path d="M1381 318 c-1 -15 6 -48 15 -74 9 -26 13 -55 11 -66 -6 -22 11 -80
27 -90 16 -11 28 -10 21 2 -3 5 -13 36 -22 67 -9 32 -24 87 -34 123 -11 40
-18 55 -18 38z"/>
<path d="M1597 187 c6 -83 24 -187 32 -187 4 0 1 37 -5 82 -7 46 -13 97 -13
115 -1 17 -5 34 -9 37 -5 3 -7 -18 -5 -47z"/>
<path d="M2083 160 c0 -41 2 -58 4 -37 2 20 2 54 0 75 -2 20 -4 3 -4 -38z"/>
<path d="M2324 214 c13 -9 14 -13 4 -17 -26 -11 16 -27 53 -21 44 7 87 -13
123 -58 18 -23 26 -28 26 -16 0 57 -43 93 -120 99 -19 2 -42 8 -50 15 -8 6
-23 11 -34 11 -17 0 -17 -1 -2 -13z"/>
<path d="M1995 188 c-4 -11 4 -39 20 -70 59 -114 85 -144 85 -98 0 11 -6 20
-13 20 -16 0 -44 46 -67 113 -14 39 -20 48 -25 35z"/>
<path d="M2303 120 c-1 -36 3 -78 7 -95 7 -27 8 -25 8 15 0 25 -3 68 -8 95
l-7 50 0 -65z"/>
<path d="M749 74 c11 -22 27 -47 37 -55 17 -13 17 -12 0 17 -10 17 -27 41 -38
55 -19 23 -19 23 1 -17z"/>
<path d="M2550 62 c0 -33 4 -51 10 -47 13 8 13 65 0 85 -7 11 -10 0 -10 -38z"/>
<path d="M2393 93 c-7 -3 -13 -12 -12 -21 0 -10 3 -12 5 -5 5 12 56 0 82 -20
9 -7 12 -4 12 11 0 12 -4 24 -10 27 -13 8 -62 13 -77 8z"/>
</g>
</svg>
